<?xml version="1.0" encoding="UTF-8" standalone="no"?><!DOCTYPE svg PUBLIC "-//W3C//DTD SVG 1.1//EN" "http://www.w3.org/Graphics/SVG/1.1/DTD/svg11.dtd"><svg width="100%" height="100%" viewBox="0 0 702 154" version="1.1" xmlns="http://www.w3.org/2000/svg" xmlns:xlink="http://www.w3.org/1999/xlink" xml:space="preserve" xmlns:serif="http://www.serif.com/" style="fill-rule:evenodd;clip-rule:evenodd;stroke-linejoin:round;stroke-miterlimit:2;"><g><g><path d="M230.986,113.708c-1.36,1.36 -3.326,2.404 -5.9,3.133c-2.574,0.728 -5.658,1.092 -9.252,1.092c-3.594,0 -6.993,-0.534 -10.199,-1.602c-3.205,-1.069 -5.827,-3.643 -7.867,-7.722l-14.424,-29.431c-1.457,-3.011 -2.768,-5.852 -3.934,-8.523c-1.165,-2.671 -2.428,-5.755 -3.788,-9.251l-0.874,0.145c0.389,5.245 0.607,10.588 0.656,16.027c0.048,5.439 0.073,10.781 0.073,16.026l-0,22.583c-1.069,0.291 -2.696,0.583 -4.881,0.874c-2.186,0.291 -4.347,0.437 -6.483,0.437c-2.137,0 -4.031,-0.146 -5.683,-0.437c-1.651,-0.291 -3.011,-0.874 -4.079,-1.748c-1.068,-0.874 -1.894,-2.064 -2.477,-3.57c-0.583,-1.505 -0.874,-3.472 -0.874,-5.9l0,-72.848c1.36,-1.942 3.448,-3.399 6.265,-4.37c2.817,-0.972 5.828,-1.457 9.033,-1.457c3.594,-0 7.018,0.558 10.271,1.675c3.254,1.117 5.852,3.667 7.795,7.649l14.569,29.43c1.457,3.011 2.769,5.852 3.934,8.523c1.166,2.671 2.428,5.755 3.788,9.252l0.729,-0.146c-0.389,-5.245 -0.632,-10.49 -0.729,-15.735c-0.097,-5.245 -0.145,-10.49 -0.145,-15.735l-0,-23.602c1.068,-0.292 2.695,-0.583 4.88,-0.874c2.186,-0.292 4.347,-0.437 6.484,-0.437c4.273,-0 7.527,0.752 9.761,2.258c2.234,1.505 3.351,4.638 3.351,9.397l0,74.887Z" style="fill-rule:nonzero;stroke:#0d6dee;stroke-width:5px;"/><path d="M329.913,102.344c-0,3.011 -0.534,5.245 -1.603,6.702c-1.068,1.457 -2.768,2.865 -5.099,4.225c-1.36,0.777 -3.06,1.53 -5.099,2.258c-2.04,0.729 -4.274,1.36 -6.702,1.894c-2.429,0.535 -4.978,0.947 -7.649,1.239c-2.671,0.291 -5.318,0.437 -7.941,0.437c-6.993,-0 -13.549,-0.947 -19.668,-2.841c-6.12,-1.894 -11.437,-4.76 -15.954,-8.596c-4.517,-3.837 -8.086,-8.62 -10.709,-14.351c-2.622,-5.731 -3.933,-12.384 -3.933,-19.96c-0,-7.965 1.432,-14.91 4.298,-20.835c2.865,-5.925 6.653,-10.854 11.364,-14.788c4.711,-3.933 10.101,-6.872 16.172,-8.814c6.071,-1.943 12.311,-2.914 18.722,-2.914c9.227,0 16.536,1.481 21.927,4.444c5.39,2.962 8.086,6.823 8.086,11.582c-0,2.526 -0.632,4.711 -1.894,6.557c-1.263,1.845 -2.72,3.302 -4.371,4.37c-2.428,-1.456 -5.464,-2.889 -9.106,-4.298c-3.642,-1.408 -7.746,-2.112 -12.311,-2.112c-8.159,-0 -14.642,2.331 -19.45,6.993c-4.808,4.662 -7.212,11.122 -7.212,19.378c-0,4.468 0.655,8.328 1.967,11.582c1.311,3.254 3.083,5.925 5.317,8.014c2.234,2.088 4.808,3.642 7.722,4.662c2.914,1.02 6.022,1.53 9.325,1.53c2.137,-0 4.031,-0.195 5.682,-0.583c1.651,-0.389 2.914,-0.826 3.788,-1.311l-0,-13.696l-15.589,0c-0.583,-1.068 -1.142,-2.477 -1.676,-4.225c-0.534,-1.748 -0.801,-3.594 -0.801,-5.536c-0,-3.497 0.801,-6.022 2.404,-7.576c1.602,-1.554 3.666,-2.332 6.192,-2.332l24.622,0c2.914,0 5.172,0.802 6.775,2.404c1.603,1.603 2.404,3.861 2.404,6.775l-0,29.722Z" style="fill-rule:nonzero;stroke:#0d6dee;stroke-width:5px;"/><path d="M340.549,39.258c0.485,-1.36 1.165,-2.719 2.039,-4.079c0.874,-1.36 1.967,-2.598 3.278,-3.715c1.312,-1.117 2.841,-2.04 4.59,-2.769c1.748,-0.728 3.691,-1.092 5.828,-1.092c2.816,-0 5.293,0.704 7.43,2.112c2.137,1.409 4.322,3.813 6.556,7.212l11.364,17.338l16.755,-24.768c0.777,-0.389 1.87,-0.753 3.278,-1.093c1.409,-0.34 2.793,-0.51 4.153,-0.51c4.468,0 7.964,1.068 10.49,3.205c2.525,2.137 3.788,4.76 3.788,7.868c-0,2.719 -0.704,5.148 -2.113,7.285c-1.408,2.136 -3.327,4.71 -5.755,7.721l-15.006,18.358l23.748,33.947c-0.777,3.593 -2.453,6.434 -5.027,8.523c-2.574,2.088 -6.046,3.132 -10.417,3.132c-2.817,0 -5.245,-0.704 -7.284,-2.112c-2.04,-1.409 -4.128,-3.813 -6.265,-7.212l-11.802,-18.649l-18.357,27.682c-0.777,0.097 -1.506,0.17 -2.186,0.218c-0.679,0.049 -1.359,0.073 -2.039,0.073c-5.537,0 -9.616,-1.117 -12.239,-3.351c-2.622,-2.234 -3.933,-5.002 -3.933,-8.304c-0,-2.817 0.607,-5.27 1.821,-7.358c1.214,-2.088 2.938,-4.541 5.172,-7.357l15.298,-19.669l-23.165,-32.636Z" style="fill-rule:nonzero;stroke:#0d6dee;stroke-width:5px;"/><path d="M431.17,89.668c-0.679,-1.068 -1.311,-2.476 -1.894,-4.225c-0.582,-1.748 -0.874,-3.593 -0.874,-5.536c0,-3.594 0.826,-6.192 2.477,-7.795c1.651,-1.602 3.788,-2.404 6.411,-2.404l31.178,0c0.583,1.069 1.19,2.477 1.821,4.225c0.632,1.749 0.947,3.594 0.947,5.537c0,3.594 -0.825,6.192 -2.476,7.795c-1.652,1.602 -3.788,2.403 -6.411,2.403l-31.179,0Z" style="fill-rule:nonzero;stroke:#0d6dee;stroke-width:5px;"/><path d="M546.123,95.059c-1.262,1.069 -2.889,1.918 -4.88,2.55c-1.991,0.631 -4.298,0.947 -6.921,0.947c-3.496,-0 -6.386,-0.437 -8.669,-1.311c-2.282,-0.875 -3.763,-2.38 -4.443,-4.517c-2.72,-8.547 -4.954,-15.468 -6.702,-20.761c-1.749,-5.294 -3.108,-9.932 -4.08,-13.914l-0.728,-0c-0.292,5.73 -0.51,10.951 -0.656,15.662c-0.146,4.711 -0.243,9.3 -0.291,13.768c-0.049,4.468 -0.146,8.985 -0.292,13.55c-0.145,4.565 -0.364,9.615 -0.655,15.152c-1.263,0.486 -2.914,0.898 -4.954,1.238c-2.04,0.34 -4.079,0.51 -6.119,0.51c-4.274,0 -7.6,-0.68 -9.98,-2.04c-2.38,-1.359 -3.57,-3.836 -3.57,-7.43l4.226,-74.304c0.777,-1.263 2.476,-2.623 5.099,-4.08c2.622,-1.456 6.313,-2.185 11.073,-2.185c5.148,0 9.178,0.801 12.092,2.404c2.914,1.603 5.051,4.201 6.411,7.795c0.874,2.331 1.821,5.002 2.841,8.013c1.02,3.011 2.04,6.119 3.059,9.324c1.02,3.206 2.016,6.387 2.987,9.543c0.972,3.157 1.846,5.998 2.623,8.523l0.728,0c2.331,-8.158 4.662,-16.05 6.994,-23.675c2.331,-7.625 4.467,-14.011 6.41,-19.159c1.457,-0.777 3.327,-1.432 5.609,-1.967c2.283,-0.534 4.833,-0.801 7.649,-0.801c4.76,0 8.645,0.704 11.656,2.113c3.011,1.408 4.759,3.423 5.245,6.046c0.388,1.943 0.801,4.929 1.238,8.96c0.437,4.031 0.899,8.572 1.384,13.623c0.486,5.05 0.972,10.392 1.457,16.026c0.486,5.633 0.947,11.048 1.384,16.245c0.437,5.196 0.802,9.956 1.093,14.278c0.291,4.322 0.486,7.649 0.583,9.98c-1.651,0.971 -3.375,1.676 -5.172,2.113c-1.797,0.437 -4.104,0.655 -6.921,0.655c-3.691,0 -6.799,-0.631 -9.324,-1.894c-2.526,-1.262 -3.885,-3.739 -4.08,-7.43c-0.582,-10.587 -0.947,-20.106 -1.092,-28.556c-0.146,-8.451 -0.365,-15.541 -0.656,-21.272l-0.728,0c-0.972,3.788 -2.38,8.548 -4.226,14.278c-1.845,5.731 -4.079,13.064 -6.702,22Z" style="fill:#0d6dee;fill-rule:nonzero;"/><path d="M662.242,95.059c-1.263,1.069 -2.89,1.918 -4.881,2.55c-1.991,0.631 -4.298,0.947 -6.92,0.947c-3.497,-0 -6.387,-0.437 -8.669,-1.311c-2.283,-0.875 -3.764,-2.38 -4.444,-4.517c-2.719,-8.547 -4.953,-15.468 -6.702,-20.761c-1.748,-5.294 -3.108,-9.932 -4.079,-13.914l-0.729,-0c-0.291,5.73 -0.51,10.951 -0.655,15.662c-0.146,4.711 -0.243,9.3 -0.292,13.768c-0.048,4.468 -0.145,8.985 -0.291,13.55c-0.146,4.565 -0.364,9.615 -0.656,15.152c-1.262,0.486 -2.914,0.898 -4.953,1.238c-2.04,0.34 -4.08,0.51 -6.119,0.51c-4.274,0 -7.601,-0.68 -9.981,-2.04c-2.379,-1.359 -3.569,-3.836 -3.569,-7.43l4.225,-74.304c0.777,-1.263 2.477,-2.623 5.099,-4.08c2.623,-1.456 6.314,-2.185 11.073,-2.185c5.148,0 9.179,0.801 12.093,2.404c2.914,1.603 5.051,4.201 6.41,7.795c0.875,2.331 1.822,5.002 2.841,8.013c1.02,3.011 2.04,6.119 3.06,9.324c1.02,3.206 2.015,6.387 2.987,9.543c0.971,3.157 1.845,5.998 2.622,8.523l0.729,0c2.331,-8.158 4.662,-16.05 6.993,-23.675c2.331,-7.625 4.468,-14.011 6.411,-19.159c1.457,-0.777 3.326,-1.432 5.609,-1.967c2.282,-0.534 4.832,-0.801 7.649,-0.801c4.759,0 8.644,0.704 11.655,2.113c3.011,1.408 4.76,3.423 5.245,6.046c0.389,1.943 0.802,4.929 1.239,8.96c0.437,4.031 0.898,8.572 1.384,13.623c0.485,5.05 0.971,10.392 1.457,16.026c0.485,5.633 0.947,11.048 1.384,16.245c0.437,5.196 0.801,9.956 1.093,14.278c0.291,4.322 0.485,7.649 0.582,9.98c-1.651,0.971 -3.375,1.676 -5.172,2.113c-1.797,0.437 -4.104,0.655 -6.92,0.655c-3.691,0 -6.799,-0.631 -9.325,-1.894c-2.525,-1.262 -3.885,-3.739 -4.079,-7.43c-0.583,-10.587 -0.947,-20.106 -1.093,-28.556c-0.146,-8.451 -0.364,-15.541 -0.656,-21.272l-0.728,0c-0.971,3.788 -2.38,8.548 -4.225,14.278c-1.846,5.731 -4.08,13.064 -6.702,22Z" style="fill:#0d6dee;fill-rule:nonzero;"/></g><g><path d="M71.886,0.517l-71.206,25.392l10.861,94.151l60.345,33.423l60.345,-33.423l10.86,-94.151l-71.205,-25.392Z" style="fill:#0d6dee;fill-rule:nonzero;"/><path d="M77.778,79.533l-5.892,7.803l-7.742,-10.336l-5.526,-7.377l-9.729,-12.988c-0.81,-1.079 -2.068,-1.732 -3.417,-1.769c-1.436,-0.04 -2.802,0.619 -3.663,1.769l-26.537,35.427c-2.183,2.916 -0.103,7.074 3.54,7.074l26.537,-0c1.393,-0 2.704,-0.656 3.539,-1.771l7.874,-10.453l-5.527,-7.377l-8.1,10.755l-15.485,0l17.698,-23.626l7.742,10.336l5.527,7.377l9.728,12.988c1.77,2.361 5.311,2.361 7.08,-0l7.878,-10.455l-5.525,-7.377Zm14.843,-5.061l5.802,-7.808l17.698,23.627l-15.485,-0l-9.956,-13.291l-5.526,-7.377l-9.729,-12.988c-1.769,-2.361 -5.31,-2.361 -7.079,0l-7.788,10.456l5.526,7.378l5.801,-7.805l7.743,10.336l5.526,7.378l9.729,12.987c0.835,1.115 2.146,1.771 3.539,1.771l26.537,0c3.643,0 5.724,-4.158 3.54,-7.074l-26.537,-35.427c-1.769,-2.361 -5.311,-2.361 -7.08,0l-7.788,10.459l5.527,7.378Z" style="fill:#fff;fill-rule:nonzero;"/></g></g></svg>