<?xml version="1.0" encoding="UTF-8" standalone="no"?>
<!DOCTYPE svg PUBLIC "-//W3C//DTD SVG 1.1//EN" "http://www.w3.org/Graphics/SVG/1.1/DTD/svg11.dtd">
<svg width="100%" height="100%" viewBox="0 0 702 154" version="1.1" xmlns="http://www.w3.org/2000/svg" xmlns:xlink="http://www.w3.org/1999/xlink" xml:space="preserve" xmlns:serif="http://www.serif.com/" style="fill-rule:evenodd;clip-rule:evenodd;stroke-linejoin:round;stroke-miterlimit:2;">
    <g transform="matrix(1,0,0,1,-15,-223)">
        <g transform="matrix(2.45855,0,0,2.45855,-424.492,-464.608)">
            <g transform="matrix(0.925944,0,0,0.925944,86.7605,155.007)">
                <path d="M200.825,184.594C200.228,185.191 199.364,185.65 198.233,185.97C197.102,186.29 195.748,186.45 194.169,186.45C192.59,186.45 191.097,186.215 189.689,185.746C188.281,185.277 187.129,184.146 186.233,182.354L179.897,169.426C179.257,168.103 178.681,166.855 178.169,165.682C177.657,164.509 177.102,163.154 176.505,161.618L176.121,161.682C176.292,163.986 176.388,166.333 176.409,168.722C176.43,171.111 176.441,173.458 176.441,175.762L176.441,185.682C175.972,185.81 175.257,185.938 174.297,186.066C173.337,186.194 172.388,186.258 171.449,186.258C170.51,186.258 169.678,186.194 168.953,186.066C168.228,185.938 167.63,185.682 167.161,185.298C166.692,184.914 166.329,184.391 166.073,183.73C165.817,183.069 165.689,182.205 165.689,181.138L165.689,149.138C166.286,148.285 167.204,147.645 168.441,147.218C169.678,146.791 171.001,146.578 172.409,146.578C173.988,146.578 175.492,146.823 176.921,147.314C178.35,147.805 179.492,148.925 180.345,150.674L186.745,163.602C187.385,164.925 187.961,166.173 188.473,167.346C188.985,168.519 189.54,169.874 190.137,171.41L190.457,171.346C190.286,169.042 190.18,166.738 190.137,164.434C190.094,162.13 190.073,159.826 190.073,157.522L190.073,147.154C190.542,147.026 191.257,146.898 192.217,146.77C193.177,146.642 194.126,146.578 195.065,146.578C196.942,146.578 198.372,146.909 199.353,147.57C200.334,148.231 200.825,149.607 200.825,151.698L200.825,184.594Z" style="fill-rule:nonzero;"/>
                <path d="M244.281,179.602C244.281,180.925 244.046,181.906 243.577,182.546C243.108,183.186 242.361,183.805 241.337,184.402C240.74,184.743 239.993,185.074 239.097,185.394C238.201,185.714 237.22,185.991 236.153,186.226C235.086,186.461 233.966,186.642 232.793,186.77C231.62,186.898 230.457,186.962 229.305,186.962C226.233,186.962 223.353,186.546 220.665,185.714C217.977,184.882 215.641,183.623 213.657,181.938C211.673,180.253 210.105,178.151 208.953,175.634C207.801,173.117 207.225,170.194 207.225,166.866C207.225,163.367 207.854,160.317 209.113,157.714C210.372,155.111 212.036,152.946 214.105,151.218C216.174,149.49 218.542,148.199 221.209,147.346C223.876,146.493 226.617,146.066 229.433,146.066C233.486,146.066 236.697,146.717 239.065,148.018C241.433,149.319 242.617,151.015 242.617,153.106C242.617,154.215 242.34,155.175 241.785,155.986C241.23,156.797 240.59,157.437 239.865,157.906C238.798,157.266 237.465,156.637 235.865,156.018C234.265,155.399 232.462,155.09 230.457,155.09C226.873,155.09 224.025,156.114 221.913,158.162C219.801,160.21 218.745,163.047 218.745,166.674C218.745,168.637 219.033,170.333 219.609,171.762C220.185,173.191 220.964,174.365 221.945,175.282C222.926,176.199 224.057,176.882 225.337,177.33C226.617,177.778 227.982,178.002 229.433,178.002C230.372,178.002 231.204,177.917 231.929,177.746C232.654,177.575 233.209,177.383 233.593,177.17L233.593,171.154L226.745,171.154C226.489,170.685 226.244,170.066 226.009,169.298C225.774,168.53 225.657,167.719 225.657,166.866C225.657,165.33 226.009,164.221 226.713,163.538C227.417,162.855 228.324,162.514 229.433,162.514L240.249,162.514C241.529,162.514 242.521,162.866 243.225,163.57C243.929,164.274 244.281,165.266 244.281,166.546L244.281,179.602Z" style="fill-rule:nonzero;"/>
                <path d="M248.953,151.89C249.166,151.293 249.465,150.695 249.849,150.098C250.233,149.501 250.713,148.957 251.289,148.466C251.865,147.975 252.537,147.57 253.305,147.25C254.073,146.93 254.926,146.77 255.865,146.77C257.102,146.77 258.19,147.079 259.129,147.698C260.068,148.317 261.028,149.373 262.009,150.866L267.001,158.482L274.361,147.602C274.702,147.431 275.182,147.271 275.801,147.122C276.42,146.973 277.028,146.898 277.625,146.898C279.588,146.898 281.124,147.367 282.233,148.306C283.342,149.245 283.897,150.397 283.897,151.762C283.897,152.957 283.588,154.023 282.969,154.962C282.35,155.901 281.508,157.031 280.441,158.354L273.849,166.418L284.281,181.33C283.94,182.909 283.204,184.157 282.073,185.074C280.942,185.991 279.417,186.45 277.497,186.45C276.26,186.45 275.193,186.141 274.297,185.522C273.401,184.903 272.484,183.847 271.545,182.354L266.361,174.162L258.297,186.322C257.956,186.365 257.636,186.397 257.337,186.418C257.038,186.439 256.74,186.45 256.441,186.45C254.009,186.45 252.217,185.959 251.065,184.978C249.913,183.997 249.337,182.781 249.337,181.33C249.337,180.093 249.604,179.015 250.137,178.098C250.67,177.181 251.428,176.103 252.409,174.866L259.129,166.226L248.953,151.89Z" style="fill-rule:nonzero;"/>
                <path d="M288.761,174.034C288.462,173.565 288.185,172.946 287.929,172.178C287.673,171.41 287.545,170.599 287.545,169.746C287.545,168.167 287.908,167.026 288.633,166.322C289.358,165.618 290.297,165.266 291.449,165.266L305.145,165.266C305.401,165.735 305.668,166.354 305.945,167.122C306.222,167.89 306.361,168.701 306.361,169.554C306.361,171.133 305.998,172.274 305.273,172.978C304.548,173.682 303.609,174.034 302.457,174.034L288.761,174.034Z" style="fill-rule:nonzero;"/>
                <path d="M339.257,176.402C338.702,176.871 337.988,177.245 337.113,177.522C336.238,177.799 335.225,177.938 334.073,177.938C332.537,177.938 331.268,177.746 330.265,177.362C329.262,176.978 328.612,176.317 328.313,175.378C327.118,171.623 326.137,168.583 325.369,166.258C324.601,163.933 324.004,161.895 323.577,160.146L323.257,160.146C323.129,162.663 323.033,164.957 322.969,167.026C322.905,169.095 322.862,171.111 322.841,173.074C322.82,175.037 322.777,177.021 322.713,179.026C322.649,181.031 322.553,183.25 322.425,185.682C321.87,185.895 321.145,186.077 320.249,186.226C319.353,186.375 318.457,186.45 317.561,186.45C315.684,186.45 314.222,186.151 313.177,185.554C312.132,184.957 311.609,183.869 311.609,182.29L313.465,149.65C313.806,149.095 314.553,148.498 315.705,147.858C316.857,147.218 318.478,146.898 320.569,146.898C322.83,146.898 324.601,147.25 325.881,147.954C327.161,148.658 328.1,149.799 328.697,151.378C329.081,152.402 329.497,153.575 329.945,154.898C330.393,156.221 330.841,157.586 331.289,158.994C331.737,160.402 332.174,161.799 332.601,163.186C333.028,164.573 333.412,165.821 333.753,166.93L334.073,166.93C335.097,163.346 336.121,159.879 337.145,156.53C338.169,153.181 339.108,150.375 339.961,148.114C340.601,147.773 341.422,147.485 342.425,147.25C343.428,147.015 344.548,146.898 345.785,146.898C347.876,146.898 349.582,147.207 350.905,147.826C352.228,148.445 352.996,149.33 353.209,150.482C353.38,151.335 353.561,152.647 353.753,154.418C353.945,156.189 354.148,158.183 354.361,160.402C354.574,162.621 354.788,164.967 355.001,167.442C355.214,169.917 355.417,172.295 355.609,174.578C355.801,176.861 355.961,178.951 356.089,180.85C356.217,182.749 356.302,184.21 356.345,185.234C355.62,185.661 354.862,185.97 354.073,186.162C353.284,186.354 352.27,186.45 351.033,186.45C349.412,186.45 348.046,186.173 346.937,185.618C345.828,185.063 345.23,183.975 345.145,182.354C344.889,177.703 344.729,173.522 344.665,169.81C344.601,166.098 344.505,162.983 344.377,160.466L344.057,160.466C343.63,162.13 343.012,164.221 342.201,166.738C341.39,169.255 340.409,172.477 339.257,176.402Z" style="fill:rgb(13,109,238);fill-rule:nonzero;"/>
                <path d="M390.265,176.402C389.71,176.871 388.996,177.245 388.121,177.522C387.246,177.799 386.233,177.938 385.081,177.938C383.545,177.938 382.276,177.746 381.273,177.362C380.27,176.978 379.62,176.317 379.321,175.378C378.126,171.623 377.145,168.583 376.377,166.258C375.609,163.933 375.012,161.895 374.585,160.146L374.265,160.146C374.137,162.663 374.041,164.957 373.977,167.026C373.913,169.095 373.87,171.111 373.849,173.074C373.828,175.037 373.785,177.021 373.721,179.026C373.657,181.031 373.561,183.25 373.433,185.682C372.878,185.895 372.153,186.077 371.257,186.226C370.361,186.375 369.465,186.45 368.569,186.45C366.692,186.45 365.23,186.151 364.185,185.554C363.14,184.957 362.617,183.869 362.617,182.29L364.473,149.65C364.814,149.095 365.561,148.498 366.713,147.858C367.865,147.218 369.486,146.898 371.577,146.898C373.838,146.898 375.609,147.25 376.889,147.954C378.169,148.658 379.108,149.799 379.705,151.378C380.089,152.402 380.505,153.575 380.953,154.898C381.401,156.221 381.849,157.586 382.297,158.994C382.745,160.402 383.182,161.799 383.609,163.186C384.036,164.573 384.42,165.821 384.761,166.93L385.081,166.93C386.105,163.346 387.129,159.879 388.153,156.53C389.177,153.181 390.116,150.375 390.969,148.114C391.609,147.773 392.43,147.485 393.433,147.25C394.436,147.015 395.556,146.898 396.793,146.898C398.884,146.898 400.59,147.207 401.913,147.826C403.236,148.445 404.004,149.33 404.217,150.482C404.388,151.335 404.569,152.647 404.761,154.418C404.953,156.189 405.156,158.183 405.369,160.402C405.582,162.621 405.796,164.967 406.009,167.442C406.222,169.917 406.425,172.295 406.617,174.578C406.809,176.861 406.969,178.951 407.097,180.85C407.225,182.749 407.31,184.21 407.353,185.234C406.628,185.661 405.87,185.97 405.081,186.162C404.292,186.354 403.278,186.45 402.041,186.45C400.42,186.45 399.054,186.173 397.945,185.618C396.836,185.063 396.238,183.975 396.153,182.354C395.897,177.703 395.737,173.522 395.673,169.81C395.609,166.098 395.513,162.983 395.385,160.466L395.065,160.466C394.638,162.13 394.02,164.221 393.209,166.738C392.398,169.255 391.417,172.477 390.265,176.402Z" style="fill:rgb(13,109,238);fill-rule:nonzero;"/>
            </g>
            <g transform="matrix(0.31109,0,0,0.31109,169.114,270.558)">
                <path d="M125,30L31.9,63.2L46.1,186.3L125,230L203.9,186.3L218.1,63.2L125,30Z" style="fill:rgb(13,109,238);fill-rule:nonzero;"/>
                <g transform="matrix(0.525092,0,0,0.525092,24.8072,-110.076)">
                    <path d="M205.481,463.514L190.811,482.943L171.533,457.207L157.773,438.838L133.548,406.498C131.531,403.81 128.399,402.185 125.039,402.092C121.464,401.994 118.063,403.635 115.919,406.498L49.842,494.711C44.405,501.972 49.586,512.325 58.656,512.325L124.733,512.325C128.202,512.325 131.467,510.692 133.547,507.916L153.152,481.889L139.391,463.52L119.221,490.3L80.663,490.3L124.731,431.469L144.009,457.206L157.77,475.575L181.995,507.915C186.4,513.794 195.218,513.794 199.623,507.915L219.239,481.882L205.481,463.514ZM242.442,450.912L256.888,431.47L300.956,490.301L262.398,490.301L237.609,457.208L223.849,438.839L199.624,406.499C195.219,400.62 186.401,400.62 181.996,406.499L162.605,432.533L176.365,450.904L190.809,431.471L210.088,457.208L223.848,475.579L248.073,507.917C250.152,510.693 253.418,512.326 256.886,512.326L322.964,512.326C332.035,512.326 337.215,501.972 331.778,494.712L265.701,406.499C261.295,400.62 252.477,400.62 248.072,406.499L228.678,432.542L242.442,450.912Z" style="fill:white;fill-rule:nonzero;"/>
                </g>
            </g>
        </g>
    </g>
</svg>
