<?xml version="1.0" encoding="UTF-8" standalone="no"?><!DOCTYPE svg PUBLIC "-//W3C//DTD SVG 1.1//EN"
        "http://www.w3.org/Graphics/SVG/1.1/DTD/svg11.dtd">
<svg width="100%" height="100%" viewBox="0 0 2925 642" version="1.1" xmlns="http://www.w3.org/2000/svg"
     xmlns:xlink="http://www.w3.org/1999/xlink" xml:space="preserve" xmlns:serif="http://www.serif.com/"
     style="fill-rule:evenodd;clip-rule:evenodd;stroke-linejoin:round;stroke-miterlimit:2;"><g><g><path d="M962.443,473.784c-5.666,5.666 -13.861,10.016 -24.586,13.051c-10.725,3.036 -23.574,4.553 -38.548,4.553c-14.975,0 -29.139,-2.225 -42.495,-6.677c-13.355,-4.452 -24.282,-15.177 -32.781,-32.174l-60.099,-122.627c-6.071,-12.546 -11.534,-24.383 -16.391,-35.513c-4.856,-11.129 -10.117,-23.979 -15.783,-38.548l-3.642,0.607c1.618,21.854 2.529,44.113 2.731,66.777c0.203,22.663 0.304,44.922 0.304,66.776l-0,94.095c-4.452,1.214 -11.231,2.428 -20.337,3.642c-9.106,1.214 -18.11,1.821 -27.014,1.821c-8.903,0 -16.795,-0.607 -23.675,-1.821c-6.88,-1.214 -12.546,-3.642 -16.998,-7.285c-4.452,-3.642 -7.892,-8.6 -10.32,-14.873c-2.428,-6.273 -3.642,-14.468 -3.642,-24.586l-0,-303.53c5.666,-8.094 14.367,-14.165 26.103,-18.212c11.737,-4.047 24.283,-6.07 37.638,-6.07c14.974,-0 29.24,2.327 42.798,6.981c13.557,4.654 24.383,15.278 32.477,31.871l60.707,122.626c6.07,12.546 11.534,24.383 16.39,35.513c4.857,11.129 10.118,23.979 15.784,38.548l3.035,-0.607c-1.619,-21.854 -2.631,-43.708 -3.035,-65.562c-0.405,-21.855 -0.607,-43.709 -0.607,-65.563l-0,-98.344c4.451,-1.214 11.23,-2.428 20.336,-3.642c9.106,-1.214 18.111,-1.821 27.014,-1.821c17.807,-0 31.365,3.136 40.673,9.409c9.309,6.273 13.963,19.325 13.963,39.156l-0,312.029Z" style="fill-rule:nonzero;"/><path
        d="M1374.64,426.433c-0,12.546 -2.226,21.854 -6.678,27.925c-4.452,6.07 -11.534,11.939 -21.247,17.604c-5.666,3.238 -12.748,6.375 -21.247,9.41c-8.499,3.035 -17.807,5.666 -27.925,7.892c-10.118,2.226 -20.741,3.946 -31.871,5.16c-11.129,1.214 -22.157,1.821 -33.084,1.821c-29.139,-0 -56.457,-3.946 -81.954,-11.838c-25.496,-7.892 -47.654,-19.83 -66.473,-35.816c-18.818,-15.986 -33.691,-35.918 -44.619,-59.796c-10.927,-23.877 -16.39,-51.6 -16.39,-83.167c-0,-33.186 5.969,-62.123 17.908,-86.81c11.939,-24.687 27.723,-45.226 47.351,-61.616c19.628,-16.391 42.089,-28.633 67.384,-36.727c25.294,-8.095 51.296,-12.142 78.007,-12.142c38.447,0 68.901,6.172 91.362,18.516c22.462,12.343 33.692,28.43 33.692,48.261c0,10.522 -2.63,19.628 -7.892,27.318c-5.261,7.689 -11.331,13.76 -18.211,18.211c-10.118,-6.07 -22.765,-12.04 -37.942,-17.908c-15.176,-5.868 -32.275,-8.802 -51.296,-8.802c-33.996,-0 -61.01,9.713 -81.043,29.139c-20.033,19.426 -30.049,46.339 -30.049,80.739c-0,18.616 2.731,34.703 8.195,48.261c5.464,13.558 12.849,24.687 22.158,33.388c9.308,8.702 20.033,15.177 32.174,19.426c12.141,4.25 25.092,6.374 38.852,6.374c8.903,0 16.795,-0.809 23.675,-2.428c6.88,-1.619 12.141,-3.44 15.784,-5.463l-0,-57.064l-64.956,-0c-2.428,-4.452 -4.755,-10.32 -6.981,-17.605c-2.226,-7.284 -3.339,-14.974 -3.339,-23.068c0,-14.57 3.339,-25.092 10.017,-31.567c6.677,-6.476 15.277,-9.713 25.8,-9.713l102.593,-0c12.141,-0 21.551,3.339 28.228,10.016c6.678,6.678 10.017,16.087 10.017,28.229l-0,123.84Z"
        style="fill-rule:nonzero;"/><path
        d="M1418.95,163.576c2.024,-5.666 4.857,-11.332 8.499,-16.998c3.642,-5.666 8.195,-10.826 13.659,-15.48c5.463,-4.654 11.838,-8.499 19.122,-11.534c7.285,-3.035 15.379,-4.553 24.283,-4.553c11.736,-0 22.056,2.934 30.96,8.802c8.903,5.869 18.009,15.885 27.317,30.05l47.351,72.24l69.812,-103.2c3.238,-1.619 7.791,-3.137 13.659,-4.553c5.868,-1.417 11.635,-2.125 17.301,-2.125c18.617,0 33.186,4.452 43.709,13.355c10.522,8.904 15.783,19.831 15.783,32.782c0,11.331 -2.934,21.449 -8.802,30.353c-5.869,8.903 -13.861,19.628 -23.979,32.174l-62.527,76.49l98.95,141.445c-3.237,14.974 -10.218,26.811 -20.943,35.513c-10.725,8.701 -25.193,13.051 -43.405,13.051c-11.736,0 -21.854,-2.934 -30.353,-8.802c-8.499,-5.868 -17.2,-15.885 -26.104,-30.049l-49.171,-77.704l-76.49,115.341c-3.238,0.405 -6.273,0.709 -9.106,0.911c-2.833,0.202 -5.666,0.303 -8.499,0.303c-23.068,0 -40.066,-4.654 -50.993,-13.962c-10.927,-9.308 -16.39,-20.842 -16.39,-34.602c-0,-11.737 2.529,-21.956 7.588,-30.657c5.059,-8.701 12.242,-18.92 21.55,-30.657l63.742,-81.953l-96.523,-135.981Z"
        style="fill-rule:nonzero;"/><path
        d="M1796.54,373.619c-2.833,-4.452 -5.464,-10.32 -7.892,-17.605c-2.428,-7.285 -3.642,-14.974 -3.642,-23.068c-0,-14.974 3.44,-25.8 10.32,-32.478c6.88,-6.678 15.783,-10.017 26.71,-10.017l129.911,0c2.428,4.452 4.958,10.32 7.588,17.605c2.631,7.285 3.946,14.974 3.946,23.068c0,14.975 -3.44,25.801 -10.32,32.478c-6.88,6.678 -15.783,10.017 -26.71,10.017l-129.911,-0Z"
        style="fill-rule:nonzero;"/><path
        d="M2275.51,396.08c-5.261,4.452 -12.04,7.993 -20.336,10.623c-8.297,2.631 -17.908,3.946 -28.836,3.946c-14.569,0 -26.609,-1.821 -36.12,-5.463c-9.51,-3.643 -15.682,-9.915 -18.515,-18.819c-11.332,-35.614 -20.64,-64.45 -27.925,-86.506c-7.285,-22.057 -12.95,-41.381 -16.997,-57.974l-3.036,-0c-1.214,23.877 -2.124,45.63 -2.732,65.259c-0.607,19.628 -1.011,38.75 -1.214,57.367c-0.202,18.616 -0.607,37.435 -1.214,56.456c-0.607,19.022 -1.517,40.066 -2.732,63.135c-5.261,2.023 -12.141,3.743 -20.64,5.16c-8.498,1.416 -16.997,2.124 -25.496,2.124c-17.807,0 -31.668,-2.833 -41.584,-8.498c-9.915,-5.666 -14.873,-15.986 -14.873,-30.961l17.605,-309.6c3.238,-5.261 10.32,-10.927 21.247,-16.998c10.927,-6.071 26.306,-9.106 46.137,-9.106c21.449,0 38.244,3.339 50.386,10.017c12.141,6.677 21.044,17.503 26.71,32.477c3.643,9.713 7.589,20.843 11.838,33.389c4.249,12.546 8.499,25.496 12.748,38.852c4.25,13.355 8.398,26.609 12.445,39.762c4.047,13.153 7.689,24.991 10.927,35.513l3.035,0c9.713,-33.995 19.426,-66.878 29.139,-98.647c9.713,-31.77 18.617,-58.379 26.711,-79.829c6.071,-3.237 13.861,-5.969 23.372,-8.195c9.51,-2.226 20.134,-3.339 31.87,-3.339c19.831,0 36.019,2.934 48.565,8.802c12.546,5.869 19.831,14.266 21.854,25.193c1.619,8.095 3.339,20.539 5.16,37.335c1.822,16.795 3.744,35.715 5.768,56.76c2.023,21.045 4.047,43.303 6.07,66.776c2.024,23.473 3.946,46.036 5.767,67.688c1.821,21.652 3.339,41.482 4.553,59.492c1.214,18.009 2.024,31.87 2.428,41.583c-6.88,4.047 -14.063,6.981 -21.55,8.803c-7.487,1.821 -17.099,2.731 -28.836,2.731c-15.378,0 -28.329,-2.63 -38.851,-7.891c-10.523,-5.262 -16.189,-15.582 -16.998,-30.96c-2.428,-44.114 -3.946,-83.775 -4.553,-118.984c-0.607,-35.21 -1.518,-64.753 -2.732,-88.631l-3.035,-0c-4.047,15.783 -9.915,35.614 -17.605,59.492c-7.689,23.878 -16.998,54.433 -27.925,91.666Z"
        style="fill:#0d6dee;fill-rule:nonzero;"/><path
        d="M2759.34,396.08c-5.261,4.452 -12.04,7.993 -20.336,10.623c-8.297,2.631 -17.908,3.946 -28.835,3.946c-14.57,0 -26.61,-1.821 -36.121,-5.463c-9.51,-3.643 -15.682,-9.915 -18.515,-18.819c-11.332,-35.614 -20.64,-64.45 -27.925,-86.506c-7.284,-22.057 -12.95,-41.381 -16.997,-57.974l-3.036,-0c-1.214,23.877 -2.124,45.63 -2.731,65.259c-0.608,19.628 -1.012,38.75 -1.215,57.367c-0.202,18.616 -0.607,37.435 -1.214,56.456c-0.607,19.022 -1.517,40.066 -2.731,63.135c-5.262,2.023 -12.142,3.743 -20.641,5.16c-8.498,1.416 -16.997,2.124 -25.496,2.124c-17.807,0 -31.668,-2.833 -41.584,-8.498c-9.915,-5.666 -14.873,-15.986 -14.873,-30.961l17.605,-309.6c3.238,-5.261 10.32,-10.927 21.247,-16.998c10.927,-6.071 26.306,-9.106 46.137,-9.106c21.449,0 38.245,3.339 50.386,10.017c12.141,6.677 21.045,17.503 26.71,32.477c3.643,9.713 7.589,20.843 11.838,33.389c4.25,12.546 8.499,25.496 12.748,38.852c4.25,13.355 8.398,26.609 12.445,39.762c4.047,13.153 7.69,24.991 10.927,35.513l3.036,0c9.712,-33.995 19.425,-66.878 29.138,-98.647c9.713,-31.77 18.617,-58.379 26.711,-79.829c6.071,-3.237 13.861,-5.969 23.372,-8.195c9.511,-2.226 20.134,-3.339 31.871,-3.339c19.83,0 36.018,2.934 48.564,8.802c12.546,5.869 19.831,14.266 21.855,25.193c1.618,8.095 3.338,20.539 5.16,37.335c1.821,16.795 3.743,35.715 5.767,56.76c2.023,21.045 4.047,43.303 6.07,66.776c2.024,23.473 3.946,46.036 5.767,67.688c1.821,21.652 3.339,41.482 4.553,59.492c1.214,18.009 2.024,31.87 2.429,41.583c-6.881,4.047 -14.064,6.981 -21.551,8.803c-7.487,1.821 -17.099,2.731 -28.835,2.731c-15.379,0 -28.33,-2.63 -38.852,-7.891c-10.523,-5.262 -16.189,-15.582 -16.998,-30.96c-2.428,-44.114 -3.946,-83.775 -4.553,-118.984c-0.607,-35.21 -1.518,-64.753 -2.732,-88.631l-3.035,-0c-4.047,15.783 -9.915,35.614 -17.605,59.492c-7.689,23.878 -16.998,54.433 -27.925,91.666Z"
        style="fill:#0d6dee;fill-rule:nonzero;"/></g><g><path d="M299.524,2.155l-296.69,105.801l45.252,392.293l251.438,139.263l251.437,-139.263l45.252,-392.293l-296.689,-105.801Z" style="fill:#0d6dee;fill-rule:nonzero;"/>
    <path d="M324.073,331.387l-24.548,32.512l-32.259,-43.066l-23.025,-30.737l-40.537,-54.117c-3.375,-4.498 -8.616,-7.217 -14.239,-7.373c-5.982,-0.164 -11.673,2.582 -15.261,7.373l-110.57,147.612c-9.098,12.15 -0.429,29.474 14.749,29.474l110.57,0c5.805,0 11.268,-2.732 14.749,-7.377l32.806,-43.553l-23.027,-30.738l-33.751,44.813l-64.522,-0l73.742,-98.445l32.259,43.067l23.027,30.738l40.537,54.116c7.371,9.838 22.127,9.838 29.498,-0l32.824,-43.562l-23.022,-30.737Zm61.849,-21.087l24.173,-32.534l73.742,98.445l-64.521,0l-41.481,-55.376l-23.026,-30.738l-40.537,-54.116c-7.371,-9.838 -22.126,-9.838 -29.498,-0l-32.448,43.564l23.026,30.741l24.17,-32.518l32.26,43.067l23.026,30.741l40.537,54.113c3.479,4.646 8.944,7.378 14.747,7.378l110.572,0c15.179,0 23.847,-17.326 14.749,-29.474l-110.57,-147.612c-7.373,-9.838 -22.129,-9.838 -29.5,-0l-32.453,43.579l23.032,30.74Z"
          style="fill:#fff;fill-rule:nonzero;"/></g></g></svg>
